PathFileType	4	(X/Y/Z)	5_coords_data.trc
DataRate	CameraRate	NumFrames	NumMarkers	Units	OrigDataRate	OrigDataStartFrame	OrigNumFrames
30.0	30.0	7	21	m	30.0	41	70
Frame#	Time	THUMB_TIP	THUMB_IP	THUMB_MCP	THUMB_CMC	INDEX_TIP	INDEX_DIP	INDEX_PIP	INDEX_MCP	MIDDLE_TIP	MIDDLE_DIP	MIDDLE_PIP	MIDDLE_MCP	RING_TIP	RING_DIP	RING_PIP	RING_MCP	PINKY_TIP	PINKY_DIP	PINKY_PIP	PINKY_MCP	WRIST
X1	Y1	Z1	X2	Y2	Z2	X3	Y3	Z3	X4	Y4	Z4	X5	Y5	Z5	X6	Y6	Z6	X7	Y7	Z7	X8	Y8	Z8	X9	Y9	Z9	X10	Y10	Z10	X11	Y11	Z11	X12	Y12	Z12	X13	Y13	Z13	X14	Y14	Z14	X15	Y15	Z15	X16	Y16	Z16	X17	Y17	Z17	X18	Y18	Z18	X19	Y19	Z19	X20	Y20	Z20	X21	Y21	Z21
39	1.3333333333333275	0.5333215731660212	-0.01721579327275241	-0.12572059527002724	0.5108793618363334	-0.017794735570826614	-0.13062079694435938	0.4809773601123474	-0.015617747395738846	-0.12225712458203694	0.4714480420713749	-0.021640781252402652	-0.07909689797425046	0.5712966953459995	0.022998644198135132	-0.15108016400214136	0.5578699084675082	0.028311637621322994	-0.1401488559832107	0.5388603843426565	0.034509928886310715	-0.12490979397332766	0.5026226914876648	0.031345374737978327	-0.10276365869898346	0.5059161400401421	-0.029178098176218026	-0.11116801879203261	0.5195467930740905	-0.017810809982648945	-0.1147721909566859	0.5377714866817336	0.004901562104359769	-0.11596309275314078	0.5153387078146623	0.02891776161156373	-0.0856952795759181	0.5206072064952985	-0.030807208069718928	-0.10397029274383171	0.5335712675329832	-0.018356664363692377	-0.10258570513898169	0.5501751442155467	4.680146911978378e-05	-0.10017661745881284	0.5270665930023343	0.0190988079640253	-0.07301530778228174	0.5993973267070666	0.01647862585844334	-0.09043157419982492	0.5837467818754167	0.012731703375567005	-0.08459882027223356	0.5642413885754175	0.008276052900820063	-0.07823495116144616	0.531637233717322	-0.0032021289889017646	-0.06793427751863093	0.4622830810018608	-0.023011742144276925	-0.051989820119430985
40	1.3666666666666607	0.5308510693905704	-0.015650266401749824	-0.13189940082808485	0.5078940903391082	-0.01575229122161048	-0.13288261177537014	0.47859392861828554	-0.013751341996686706	-0.12257161156525924	0.47075081595357793	-0.021222288858832483	-0.07929851903986082	0.5695785762332795	0.019433929839457964	-0.1525943349350396	0.5568898336141515	0.025770882408525486	-0.14133205972605478	0.5386237892130616	0.033194144621225274	-0.12573537312091587	0.5027102967961566	0.0311126398738949	-0.10294229315335207	0.5115945394547273	-0.03154821018088738	-0.11646371250585466	0.5239054918046437	-0.01838665628110492	-0.11825646212061025	0.5395280636127388	0.006151502602251169	-0.11646103495247115	0.5156256857391355	0.02842962126973686	-0.08598957811783806	0.5262928156117449	-0.032022224228244356	-0.10804836236356147	0.5378090168897043	-0.018520555213669687	-0.10487313923023618	0.5521729263689213	0.0012409117693942817	-0.10004173093139321	0.5272954524346427	0.018595533205729875	-0.07330880667214379	0.6002534161144831	0.014990602694620825	-0.08875346570344089	0.5844617686338339	0.011748581764880306	-0.08299906129133794	0.5647820551569852	0.007809159010220501	-0.07683449765477726	0.5317397512648361	-0.003057311320453837	-0.06729461154164945	0.4622830810018609	-0.023011742144276925	-0.051989820119430985
41	1.3999999999999937	0.5272894026034051	-0.013505230314678873	-0.13847538758273212	0.5045499167644535	-0.013405182874463295	-0.13517299840369293	0.4760744339703288	-0.011670434694379284	-0.1227248046233406	0.47003013935650495	-0.020797755895506642	-0.07948074710889419	0.5684481365266846	0.016738042631991412	-0.15382385544759372	0.5562910921581459	0.023732461476562217	-0.1423659159623243	0.5385664048925045	0.031961155734696156	-0.1265502944082605	0.5029530176577233	0.030652655237923376	-0.1032348366577581	0.5202864246856899	-0.033622746605740716	-0.12293522909167931	0.5302389974992439	-0.01850164447083663	-0.12238881842496091	0.5418141417337617	0.007680041128454995	-0.11691662278427435	0.5160561170184812	0.027707073843437457	-0.08639466274891575	0.5345037236687885	-0.03283412378451894	-0.11283798684445903	0.5437228939079105	-0.018302616907254154	-0.10746749264205106	0.5546175363784203	0.002703063406010342	-0.09970552517131923	0.5276287571901166	0.017865980639655055	-0.07369759228747341	0.6011588050677219	0.01352432540568993	-0.08668336940977228	0.5852152661489282	0.010726628134294314	-0.08111771969724688	0.5653542835511063	0.007240319671698581	-0.07526972495095557	0.5318700157850674	-0.003038853612317427	-0.06666589674663911	0.4622830810018608	-0.023011742144276925	-0.051989820119430985
42	1.4333333333333271	0.5226533358976271	-0.010793658381208215	-0.14487860857790677	0.5009540228800919	-0.010826267478956875	-0.13731959070428185	0.4735159081526584	-0.009471846570134335	-0.12268622457731213	0.46930989580544746	-0.020378341498829777	-0.07963685955870295	0.5682080834714406	0.015033094180362694	-0.15472234369775764	0.556270367337411	0.0222873207940405	-0.14319554319888828	0.5387773894128846	0.030848293913310287	-0.1272985216041627	0.5033749307681427	0.02993265982534521	-0.10364553806879673	0.5330372477551727	-0.034178862210000605	-0.1303681574158293	0.5389750401634656	-0.017436939678485086	-0.12683960937665617	0.5445876104914967	0.009487996469387416	-0.117198218515069	0.5166374947162095	0.026729188295912976	-0.08690498076224717	0.5459280101388639	-0.03238636287473584	-0.11792726689888784	0.5515243823875972	-0.0171908908575083	-0.11000399435357772	0.5573895368523906	0.0044028343154821625	-0.09907280158894885	0.5280752112828722	0.016879674745410134	-0.07417863353114076	0.6020917745161849	0.012055775755984433	-0.08431562952359312	0.5859896186341229	0.009603495606638757	-0.07905189529598433	0.5659484832446557	0.006499615418353255	-0.07361766682472762	0.532036889800493	-0.0032026926211485285	-0.0660842413233744	0.462283081001861	-0.023011742144276925	-0.051989820119430985
43	1.4666666666666603	0.5172309498537923	-0.007637977697162568	-0.1505988394880996	0.49729317519362726	-0.008147562114870721	-0.1391872022119805	0.4710688176159147	-0.007249215311071033	-0.12244515805195107	0.46864086507092273	-0.019961711613994293	-0.07975572746090867	0.5689080375858884	0.014380333241711396	-0.15528378903350712	0.5568626029616114	0.021503187148771363	-0.14378716096563646	0.5392761814591672	0.029928732210513342	-0.12792091370451888	0.5039654963058433	0.028985461475464713	-0.10413222209856368	0.549626128396222	-0.03096362543390646	-0.13749607380919388	0.5496749366051821	-0.014131608083064795	-0.13081170325844618	0.5476543152684431	0.011562177022536868	-0.11720449758054596	0.5173460003236753	0.02551886750190796	-0.08749314020543109	0.5604214760636871	-0.029158204465736803	-0.12226134462090708	0.5609663729307611	-0.014422105598756285	-0.11189068998453865	0.5602704067547727	0.00630142343634843	-0.09809826617967199	0.5286110871247934	0.015649860108307156	-0.07475270886447391	0.6029867829833234	0.01070102566108383	-0.0817670012567509	0.5867296126149865	0.008477775048282177	-0.07689241734347821	0.5665177234660295	0.005662826195703297	-0.07195606048972011	0.532231003797921	-0.0035457018951379204	-0.06559152470140536	0.4622830810018608	-0.023011742144276925	-0.051989820119430985
44	1.4999999999999936	0.5114693638703547	-0.004266600867699644	-0.15530739568117136	0.49377057877526953	-0.005528075488155482	-0.14070733787512363	0.46886784787624003	-0.005157147264686079	-0.1220382081143781	0.4680579834369758	-0.01960116702103859	-0.07984099952342846	0.5704474849344343	0.01479417500127872	-0.15552238371883761	0.5580075066657817	0.021415413477246736	-0.1441467016856664	0.5400256403001221	0.029244936118077824	-0.12841899078343164	0.5046807362871377	0.027816050253823665	-0.10470544740628426	0.5670320412072285	-0.022678523601124434	-0.14207016701504757	0.560815313542709	-0.008139283797560515	-0.1332405122607743	0.550778465322451	0.013811084354148406	-0.11690488965837705	0.5181483745045672	0.024083461317463528	-0.08816635514911217	0.5758732327619652	-0.022143316829618453	-0.12418120465911267	0.5707608934361823	-0.00956196786857444	-0.11232482895072306	0.5629800758454027	0.008304680933721498	-0.09681929067582165	0.5292091351178626	0.014213678403744934	-0.07538734850353515	0.6037792902079245	0.009599346029581013	-0.0791998726273534	0.5873783759079484	0.0074568346663228535	-0.07479309884337643	0.5670193235427499	0.004792232738726476	-0.07040893388770328	0.532437524144107	-0.004061779977004298	-0.06525247578337362	0.462283081001861	-0.023011742144276925	-0.051989820119430985
45	1.5333333333333266	0.5058090677462803	-0.0009022868219491498	-0.15891450625176573	0.49056022061945903	-0.0031469944128726945	-0.1418723834633896	0.46699631758594196	-0.00329937134627295	-0.12153671885420662	0.46754580094750886	-0.019313225835600245	-0.07990566635213775	0.5726143784490633	0.016212679365912752	-0.15540642355610113	0.5595715554749631	0.02199223887953744	-0.14424929755095306	0.5409610893946966	0.028798393206908413	-0.1287787885565062	0.5054843647032613	0.026464040669803846	-0.10533547613269066	0.5812509367604752	-0.011382837911787014	-0.14308247345300612	0.5702594891072306	-0.0006022286328103421	-0.13354483527261646	0.5537025160720441	0.016077400600732927	-0.1163092278698111	0.5189944747069762	0.022466746416706984	-0.08891075992642747	0.5889325785892311	-0.012658413738549812	-0.122955392883909	0.5790617239792701	-0.0034439567234864077	-0.11101135624688538	0.5653070511193976	0.010199388799251918	-0.0953637341762619	0.5298370913212159	0.012585968747434062	-0.07610478763014164	0.6044426332121692	0.008727578570377037	-0.07679010743731327	0.5879193408865807	0.0065307979741300315	-0.07289716950625127	0.5674432896754711	0.0038738865797557365	-0.06909136241149955	0.5326562219511362	-0.004767077348110382	-0.06508173493006714	0.4622830810018608	-0.023011742144276925	-0.051989820119430985
